<mxfile host="app.diagrams.net" modified="2020-10-30T05:47:03.751Z" agent="5.0 (Windows)" etag="8NrjScZxcZlKqmbtBPh2" version="13.8.6" type="github">
  <diagram id="r7ZIYfDa7NwBipqYnJAr" name="Page-1">
    <mxGraphModel dx="1820" dy="1639" grid="1" gridSize="10" guides="1" tooltips="1" connect="1" arrows="1" fold="1" page="1" pageScale="1" pageWidth="827" pageHeight="1169" math="0" shadow="0">
      <root>
        <mxCell id="0" />
        <mxCell id="1" parent="0" />
        <mxCell id="DoJjOXQRFMBwmco1AnFW-31" value="" style="shape=internalStorage;whiteSpace=wrap;html=1;backgroundOutline=1;dx=180;dy=0;fillColor=#f9f7ed;strokeColor=#36393d;" vertex="1" parent="1">
          <mxGeometry x="-20" y="-10" width="810" height="520" as="geometry" />
        </mxCell>
        <mxCell id="DoJjOXQRFMBwmco1AnFW-32" value="" style="ellipse;shape=cloud;whiteSpace=wrap;html=1;" vertex="1" parent="1">
          <mxGeometry x="-10" width="190" height="110" as="geometry" />
        </mxCell>
        <mxCell id="DoJjOXQRFMBwmco1AnFW-33" value="" style="verticalLabelPosition=bottom;verticalAlign=top;html=1;shadow=0;dashed=0;strokeWidth=1;shape=mxgraph.android.phone2;strokeColor=#c0c0c0;" vertex="1" parent="1">
          <mxGeometry x="50" y="35" width="20" height="35" as="geometry" />
        </mxCell>
        <mxCell id="DoJjOXQRFMBwmco1AnFW-41" value="" style="rounded=0;orthogonalLoop=1;jettySize=auto;html=1;endArrow=none;endFill=0;" edge="1" target="DoJjOXQRFMBwmco1AnFW-43" parent="1">
          <mxGeometry relative="1" as="geometry">
            <mxPoint x="69" y="53" as="sourcePoint" />
          </mxGeometry>
        </mxCell>
        <mxCell id="DoJjOXQRFMBwmco1AnFW-42" value="" style="rounded=0;orthogonalLoop=1;jettySize=auto;html=1;endArrow=halfCircle;endFill=0;entryX=0.5;entryY=0.5;entryDx=0;entryDy=0;endSize=6;strokeWidth=1;" edge="1" target="DoJjOXQRFMBwmco1AnFW-43" parent="1">
          <mxGeometry relative="1" as="geometry">
            <mxPoint x="120" y="53" as="sourcePoint" />
          </mxGeometry>
        </mxCell>
        <mxCell id="DoJjOXQRFMBwmco1AnFW-43" value="" style="ellipse;whiteSpace=wrap;html=1;fontFamily=Helvetica;fontSize=12;fontColor=#000000;align=center;strokeColor=#000000;fillColor=#ffffff;points=[];aspect=fixed;resizable=0;" vertex="1" parent="1">
          <mxGeometry x="95" y="48" width="10" height="10" as="geometry" />
        </mxCell>
        <mxCell id="DoJjOXQRFMBwmco1AnFW-44" value="" style="verticalLabelPosition=bottom;html=1;fillColor=#282828;strokeColor=none;verticalAlign=top;pointerEvents=1;align=center;shape=mxgraph.cisco_safe.security_icons.log_management;" vertex="1" parent="1">
          <mxGeometry x="120" y="32.5" width="30" height="37.5" as="geometry" />
        </mxCell>
        <mxCell id="DoJjOXQRFMBwmco1AnFW-45" value="&lt;pre&gt;&lt;font style=&quot;font-size: 9px&quot; face=&quot;Comic Sans MS&quot;&gt;AUDI app&lt;/font&gt;&lt;/pre&gt;" style="text;html=1;strokeColor=none;fillColor=none;align=center;verticalAlign=middle;whiteSpace=wrap;rounded=0;" vertex="1" parent="1">
          <mxGeometry x="35" y="70" width="50" height="20" as="geometry" />
        </mxCell>
        <mxCell id="DoJjOXQRFMBwmco1AnFW-47" value="&lt;font face=&quot;Comic Sans MS&quot;&gt;RVS&lt;/font&gt;" style="text;html=1;strokeColor=none;fillColor=none;align=center;verticalAlign=middle;whiteSpace=wrap;rounded=0;" vertex="1" parent="1">
          <mxGeometry x="115" y="70" width="40" height="20" as="geometry" />
        </mxCell>
        <mxCell id="DoJjOXQRFMBwmco1AnFW-48" value="" style="outlineConnect=0;dashed=0;verticalLabelPosition=bottom;verticalAlign=top;align=center;html=1;shape=mxgraph.aws3.cloud_2;fillColor=#F58534;gradientColor=none;" vertex="1" parent="1">
          <mxGeometry x="23" y="10" width="27" height="25" as="geometry" />
        </mxCell>
        <mxCell id="DoJjOXQRFMBwmco1AnFW-102" style="edgeStyle=orthogonalEdgeStyle;rounded=0;orthogonalLoop=1;jettySize=auto;html=1;entryX=0;entryY=0.5;entryDx=0;entryDy=0;entryPerimeter=0;" edge="1" parent="1">
          <mxGeometry relative="1" as="geometry">
            <mxPoint x="100" y="240" as="sourcePoint" />
            <mxPoint x="220" y="240" as="targetPoint" />
          </mxGeometry>
        </mxCell>
        <mxCell id="DoJjOXQRFMBwmco1AnFW-52" value="" style="endArrow=none;dashed=1;html=1;dashPattern=1 3;strokeWidth=2;exitX=-0.002;exitY=0.329;exitDx=0;exitDy=0;exitPerimeter=0;" edge="1" parent="1" source="DoJjOXQRFMBwmco1AnFW-31">
          <mxGeometry width="50" height="50" relative="1" as="geometry">
            <mxPoint x="10" y="180" as="sourcePoint" />
            <mxPoint x="170" y="161" as="targetPoint" />
            <Array as="points">
              <mxPoint x="80" y="161" />
              <mxPoint x="170" y="161" />
              <mxPoint x="510" y="161" />
              <mxPoint x="800" y="161" />
            </Array>
          </mxGeometry>
        </mxCell>
        <mxCell id="DoJjOXQRFMBwmco1AnFW-55" value="" style="endArrow=none;dashed=1;html=1;exitX=0.002;exitY=0.665;exitDx=0;exitDy=0;exitPerimeter=0;entryX=1.002;entryY=0.675;entryDx=0;entryDy=0;entryPerimeter=0;" edge="1" parent="1" source="DoJjOXQRFMBwmco1AnFW-31" target="DoJjOXQRFMBwmco1AnFW-31">
          <mxGeometry width="50" height="50" relative="1" as="geometry">
            <mxPoint x="200" y="270" as="sourcePoint" />
            <mxPoint x="170" y="336" as="targetPoint" />
            <Array as="points">
              <mxPoint x="110" y="336" />
            </Array>
          </mxGeometry>
        </mxCell>
        <mxCell id="DoJjOXQRFMBwmco1AnFW-99" style="edgeStyle=orthogonalEdgeStyle;rounded=0;orthogonalLoop=1;jettySize=auto;html=1;entryX=0;entryY=0.5;entryDx=0;entryDy=0;entryPerimeter=0;" edge="1" parent="1" source="DoJjOXQRFMBwmco1AnFW-60" target="DoJjOXQRFMBwmco1AnFW-98">
          <mxGeometry relative="1" as="geometry" />
        </mxCell>
        <mxCell id="DoJjOXQRFMBwmco1AnFW-60" value="HCM " style="rounded=0;whiteSpace=wrap;html=1;" vertex="1" parent="1">
          <mxGeometry x="10" y="380" width="120" height="60" as="geometry" />
        </mxCell>
        <mxCell id="DoJjOXQRFMBwmco1AnFW-66" value="" style="shape=parallelogram;perimeter=parallelogramPerimeter;whiteSpace=wrap;html=1;fixedSize=1;" vertex="1" parent="1">
          <mxGeometry x="230" y="30" width="120" height="60" as="geometry" />
        </mxCell>
        <mxCell id="DoJjOXQRFMBwmco1AnFW-67" value="&lt;i&gt;AUDI App&lt;/i&gt;" style="text;html=1;strokeColor=none;fillColor=none;align=center;verticalAlign=middle;whiteSpace=wrap;rounded=0;" vertex="1" parent="1">
          <mxGeometry x="250" y="35" width="85" height="47.5" as="geometry" />
        </mxCell>
        <mxCell id="DoJjOXQRFMBwmco1AnFW-74" value="" style="endArrow=classic;html=1;exitX=0.875;exitY=0.5;exitDx=0;exitDy=0;exitPerimeter=0;shadow=0;" edge="1" parent="1" source="DoJjOXQRFMBwmco1AnFW-32">
          <mxGeometry width="50" height="50" relative="1" as="geometry">
            <mxPoint x="390" y="180" as="sourcePoint" />
            <mxPoint x="230" y="55" as="targetPoint" />
          </mxGeometry>
        </mxCell>
        <mxCell id="DoJjOXQRFMBwmco1AnFW-85" value="" style="endArrow=classic;html=1;" edge="1" parent="1">
          <mxGeometry relative="1" as="geometry">
            <mxPoint x="350" y="57.92" as="sourcePoint" />
            <mxPoint x="510" y="57.92" as="targetPoint" />
          </mxGeometry>
        </mxCell>
        <mxCell id="DoJjOXQRFMBwmco1AnFW-86" value="J" style="edgeLabel;resizable=0;html=1;align=center;verticalAlign=middle;" connectable="0" vertex="1" parent="DoJjOXQRFMBwmco1AnFW-85">
          <mxGeometry relative="1" as="geometry" />
        </mxCell>
        <mxCell id="DoJjOXQRFMBwmco1AnFW-87" value="AUDI APP" style="edgeLabel;resizable=0;html=1;align=left;verticalAlign=bottom;" connectable="0" vertex="1" parent="DoJjOXQRFMBwmco1AnFW-85">
          <mxGeometry x="-1" relative="1" as="geometry" />
        </mxCell>
        <mxCell id="DoJjOXQRFMBwmco1AnFW-88" value="" style="dashed=0;outlineConnect=0;html=1;align=center;labelPosition=center;verticalLabelPosition=bottom;verticalAlign=top;shape=mxgraph.webicons.json;gradientColor=#DFDEDE" vertex="1" parent="1">
          <mxGeometry x="420" y="21.5" width="40" height="62" as="geometry" />
        </mxCell>
        <mxCell id="DoJjOXQRFMBwmco1AnFW-90" value="&lt;font color=&quot;#FFFFFF&quot;&gt;RVS &lt;/font&gt;" style="text;html=1;strokeColor=none;fillColor=none;align=center;verticalAlign=middle;whiteSpace=wrap;rounded=0;" vertex="1" parent="1">
          <mxGeometry x="511.78" y="58.37" width="40" height="36.5" as="geometry" />
        </mxCell>
        <mxCell id="DoJjOXQRFMBwmco1AnFW-92" value="" style="outlineConnect=0;dashed=0;verticalLabelPosition=bottom;verticalAlign=top;align=center;html=1;shape=mxgraph.aws3.cloud_2;fillColor=#F58534;gradientColor=none;" vertex="1" parent="1">
          <mxGeometry x="551.78" y="5.5" width="40" height="27" as="geometry" />
        </mxCell>
        <mxCell id="DoJjOXQRFMBwmco1AnFW-115" style="edgeStyle=orthogonalEdgeStyle;rounded=0;orthogonalLoop=1;jettySize=auto;html=1;entryX=0;entryY=0.5;entryDx=0;entryDy=0;" edge="1" parent="1" source="DoJjOXQRFMBwmco1AnFW-98" target="DoJjOXQRFMBwmco1AnFW-109">
          <mxGeometry relative="1" as="geometry" />
        </mxCell>
        <mxCell id="DoJjOXQRFMBwmco1AnFW-98" value="" style="shape=cylinder3;whiteSpace=wrap;html=1;boundedLbl=1;backgroundOutline=1;size=15;" vertex="1" parent="1">
          <mxGeometry x="220.5" y="370" width="60" height="80" as="geometry" />
        </mxCell>
        <mxCell id="DoJjOXQRFMBwmco1AnFW-106" value="" style="dashed=0;outlineConnect=0;html=1;align=center;labelPosition=center;verticalLabelPosition=bottom;verticalAlign=top;shape=mxgraph.weblogos.json" vertex="1" parent="1">
          <mxGeometry x="250" y="310" width="31" height="40" as="geometry" />
        </mxCell>
        <mxCell id="DoJjOXQRFMBwmco1AnFW-108" value="&lt;i&gt;SAP Directory&lt;/i&gt;" style="text;html=1;strokeColor=none;fillColor=none;align=center;verticalAlign=middle;whiteSpace=wrap;rounded=0;" vertex="1" parent="1">
          <mxGeometry x="230" y="410" width="40" height="20" as="geometry" />
        </mxCell>
        <mxCell id="DoJjOXQRFMBwmco1AnFW-109" value="" style="shape=parallelogram;perimeter=parallelogramPerimeter;whiteSpace=wrap;html=1;fixedSize=1;" vertex="1" parent="1">
          <mxGeometry x="330" y="380" width="150" height="60" as="geometry" />
        </mxCell>
        <mxCell id="DoJjOXQRFMBwmco1AnFW-121" style="edgeStyle=orthogonalEdgeStyle;rounded=0;orthogonalLoop=1;jettySize=auto;html=1;entryX=0;entryY=0.5;entryDx=0;entryDy=0;exitX=1;exitY=0.5;exitDx=0;exitDy=0;" edge="1" parent="1" source="DoJjOXQRFMBwmco1AnFW-110" target="DoJjOXQRFMBwmco1AnFW-119">
          <mxGeometry relative="1" as="geometry" />
        </mxCell>
        <mxCell id="DoJjOXQRFMBwmco1AnFW-110" value="&lt;i&gt;Background job will read file from DIR&lt;/i&gt;" style="text;html=1;strokeColor=none;fillColor=none;align=center;verticalAlign=middle;whiteSpace=wrap;rounded=0;" vertex="1" parent="1">
          <mxGeometry x="350" y="400" width="110" height="20" as="geometry" />
        </mxCell>
        <mxCell id="DoJjOXQRFMBwmco1AnFW-120" value="" style="group" vertex="1" connectable="0" parent="1">
          <mxGeometry x="510" y="350" width="123.54999999999995" height="100" as="geometry" />
        </mxCell>
        <mxCell id="DoJjOXQRFMBwmco1AnFW-119" value="&lt;div align=&quot;left&quot;&gt;&lt;i&gt;The request/s will be processed&lt;/i&gt;&lt;/div&gt;" style="shape=ext;rounded=1;html=1;whiteSpace=wrap;align=left;" vertex="1" parent="DoJjOXQRFMBwmco1AnFW-120">
          <mxGeometry y="20" width="100" height="80" as="geometry" />
        </mxCell>
        <mxCell id="DoJjOXQRFMBwmco1AnFW-118" value="" style="verticalLabelPosition=bottom;aspect=fixed;html=1;verticalAlign=top;strokeColor=none;align=center;outlineConnect=0;shape=mxgraph.citrix.process;" vertex="1" parent="DoJjOXQRFMBwmco1AnFW-120">
          <mxGeometry x="80" y="10" width="25.16" height="30" as="geometry" />
        </mxCell>
        <mxCell id="DoJjOXQRFMBwmco1AnFW-123" value="" style="shape=mxgraph.cisco.servers.fileserver;html=1;pointerEvents=1;dashed=0;fillColor=#036897;strokeColor=#ffffff;strokeWidth=2;verticalLabelPosition=bottom;verticalAlign=top;align=center;outlineConnect=0;" vertex="1" parent="1">
          <mxGeometry x="38.5" y="190" width="66.5" height="100" as="geometry" />
        </mxCell>
        <mxCell id="DoJjOXQRFMBwmco1AnFW-124" value="" style="shape=mxgraph.cisco.servers.fileserver;html=1;pointerEvents=1;dashed=0;fillColor=#036897;strokeColor=#ffffff;strokeWidth=2;verticalLabelPosition=bottom;verticalAlign=top;align=center;outlineConnect=0;" vertex="1" parent="1">
          <mxGeometry x="510" y="25.12" width="50" height="69.75" as="geometry" />
        </mxCell>
        <mxCell id="DoJjOXQRFMBwmco1AnFW-144" value="" style="shape=document;whiteSpace=wrap;html=1;boundedLbl=1;" vertex="1" parent="1">
          <mxGeometry x="220.5" y="200" width="120" height="80" as="geometry" />
        </mxCell>
        <mxCell id="DoJjOXQRFMBwmco1AnFW-145" value="&lt;i&gt;Fwd the document to SAP system&lt;/i&gt;" style="text;html=1;strokeColor=none;fillColor=none;align=center;verticalAlign=middle;whiteSpace=wrap;rounded=0;" vertex="1" parent="1">
          <mxGeometry x="220.5" y="190" width="119.5" height="80" as="geometry" />
        </mxCell>
        <mxCell id="DoJjOXQRFMBwmco1AnFW-146" value="" style="aspect=fixed;html=1;points=[];align=center;image;fontSize=12;image=img/lib/mscae/SAP_HANA_on_Azure.svg;" vertex="1" parent="1">
          <mxGeometry x="10" y="375" width="50" height="25" as="geometry" />
        </mxCell>
        <mxCell id="DoJjOXQRFMBwmco1AnFW-150" value="" style="edgeStyle=orthogonalEdgeStyle;rounded=0;orthogonalLoop=1;jettySize=auto;html=1;" edge="1" parent="1" source="DoJjOXQRFMBwmco1AnFW-119">
          <mxGeometry relative="1" as="geometry">
            <mxPoint x="670" y="410" as="targetPoint" />
          </mxGeometry>
        </mxCell>
        <mxCell id="DoJjOXQRFMBwmco1AnFW-152" value="" style="shape=step;perimeter=stepPerimeter;whiteSpace=wrap;html=1;fixedSize=1;" vertex="1" parent="1">
          <mxGeometry x="660" y="370" width="120" height="80" as="geometry" />
        </mxCell>
        <mxCell id="DoJjOXQRFMBwmco1AnFW-153" value="Approval workflow is triggred" style="text;html=1;strokeColor=none;fillColor=none;align=left;verticalAlign=middle;whiteSpace=wrap;rounded=0;fontStyle=2" vertex="1" parent="1">
          <mxGeometry x="690" y="400" width="70" height="20" as="geometry" />
        </mxCell>
        <mxCell id="DoJjOXQRFMBwmco1AnFW-156" value="" style="endArrow=classic;html=1;exitX=0.5;exitY=0;exitDx=0;exitDy=0;entryX=1;entryY=0.5;entryDx=0;entryDy=0;" edge="1" parent="1" source="DoJjOXQRFMBwmco1AnFW-152" target="DoJjOXQRFMBwmco1AnFW-145">
          <mxGeometry width="50" height="50" relative="1" as="geometry">
            <mxPoint x="690" y="310" as="sourcePoint" />
            <mxPoint x="740" y="260" as="targetPoint" />
            <Array as="points">
              <mxPoint x="720" y="230" />
            </Array>
          </mxGeometry>
        </mxCell>
        <mxCell id="DoJjOXQRFMBwmco1AnFW-160" value="" style="endArrow=classic;startArrow=classic;html=1;shadow=0;entryX=0.5;entryY=1;entryDx=0;entryDy=0;entryPerimeter=0;" edge="1" parent="1" source="DoJjOXQRFMBwmco1AnFW-145" target="DoJjOXQRFMBwmco1AnFW-124">
          <mxGeometry width="50" height="50" relative="1" as="geometry">
            <mxPoint x="270" y="134.7943760984183" as="sourcePoint" />
            <mxPoint x="560" y="90" as="targetPoint" />
            <Array as="points">
              <mxPoint x="280" y="132" />
              <mxPoint x="535" y="132" />
            </Array>
          </mxGeometry>
        </mxCell>
        <mxCell id="DoJjOXQRFMBwmco1AnFW-172" value="" style="endArrow=classic;html=1;shadow=0;" edge="1" parent="1">
          <mxGeometry relative="1" as="geometry">
            <mxPoint x="495" y="83.5" as="sourcePoint" />
            <mxPoint x="335" y="83.5" as="targetPoint" />
          </mxGeometry>
        </mxCell>
        <mxCell id="DoJjOXQRFMBwmco1AnFW-174" value="RVS" style="edgeLabel;resizable=0;html=1;align=left;verticalAlign=bottom;" connectable="0" vertex="1" parent="DoJjOXQRFMBwmco1AnFW-172">
          <mxGeometry x="-1" relative="1" as="geometry" />
        </mxCell>
        <mxCell id="DoJjOXQRFMBwmco1AnFW-180" value="" style="dashed=0;outlineConnect=0;html=1;align=center;labelPosition=center;verticalLabelPosition=bottom;verticalAlign=top;shape=mxgraph.weblogos.json" vertex="1" parent="1">
          <mxGeometry x="580" y="180" width="40" height="52" as="geometry" />
        </mxCell>
        <mxCell id="DoJjOXQRFMBwmco1AnFW-182" value="" style="dashed=0;outlineConnect=0;html=1;align=center;labelPosition=center;verticalLabelPosition=bottom;verticalAlign=top;shape=mxgraph.weblogos.json" vertex="1" parent="1">
          <mxGeometry x="290" y="140" width="19" height="40" as="geometry" />
        </mxCell>
        <mxCell id="DoJjOXQRFMBwmco1AnFW-185" value="" style="endArrow=classic;html=1;shadow=0;entryX=0.5;entryY=0;entryDx=0;entryDy=0;entryPerimeter=0;" edge="1" parent="1" target="DoJjOXQRFMBwmco1AnFW-98">
          <mxGeometry width="50" height="50" relative="1" as="geometry">
            <mxPoint x="251" y="284" as="sourcePoint" />
            <mxPoint x="300" y="310" as="targetPoint" />
          </mxGeometry>
        </mxCell>
      </root>
    </mxGraphModel>
  </diagram>
</mxfile>
